<?xml version="1.0" encoding="UTF-8" standalone="no"?>
<!-- Created with Inkscape (http://www.inkscape.org/) -->

<svg
   xmlns:dc="http://purl.org/dc/elements/1.1/"
   xmlns:cc="http://creativecommons.org/ns#"
   xmlns:rdf="http://www.w3.org/1999/02/22-rdf-syntax-ns#"
   xmlns:svg="http://www.w3.org/2000/svg"
   xmlns="http://www.w3.org/2000/svg"
   xmlns:sodipodi="http://sodipodi.sourceforge.net/DTD/sodipodi-0.dtd"
   xmlns:inkscape="http://www.inkscape.org/namespaces/inkscape"
   width="210mm"
   height="297mm"
   viewBox="0 0 210 297"
   version="1.1"
   id="svg13873"
   inkscape:version="0.92.1 r15371"
   sodipodi:docname="1.svg">
  <defs
     id="defs13867" />
  <sodipodi:namedview
     id="base"
     pagecolor="#ffffff"
     bordercolor="#666666"
     borderopacity="1.0"
     inkscape:pageopacity="0.0"
     inkscape:pageshadow="2"
     inkscape:zoom="0.36703143"
     inkscape:cx="269.73142"
     inkscape:cy="606.20856"
     inkscape:document-units="mm"
     inkscape:current-layer="layer1"
     showgrid="false"
     inkscape:window-width="853"
     inkscape:window-height="623"
     inkscape:window-x="-8"
     inkscape:window-y="-8"
     inkscape:window-maximized="1" />
  <metadata
     id="metadata13870">
    <rdf:RDF>
      <cc:Work
         rdf:about="">
        <dc:format>image/svg+xml</dc:format>
        <dc:type
           rdf:resource="http://purl.org/dc/dcmitype/StillImage" />
        <dc:title></dc:title>
      </cc:Work>
    </rdf:RDF>
  </metadata>
  <g
     inkscape:label="Camada 1"
     inkscape:groupmode="layer"
     id="layer1">
    <g
       transform="matrix(3.6493184,0,0,-3.2453089,82.914325,194.93713)"
       id="g66">
      <path
         d="m 0,0 c 0.386,-0.413 1.045,-0.426 1.445,-0.041 0,0 1.515,1.514 3.527,3.553 0.316,-0.151 0.674,-0.247 1.059,-0.247 1.323,0 2.397,1.073 2.397,2.395 0,0.4 -0.097,0.772 -0.262,1.103 3.498,3.58 7.01,7.285 6.818,7.491 C 14.791,14.461 10.894,11.114 7.12,7.795 6.789,7.961 6.432,8.058 6.031,8.058 4.71,8.058 3.636,6.982 3.636,5.66 3.636,5.371 3.69,5.096 3.787,4.834 1.639,2.906 0.026,1.46 0.026,1.46 -0.373,1.061 -0.385,0.414 0,0 m 15.148,20.217 0.124,0.206 -0.302,0.18 -0.744,0.426 -2.231,-3.854 1.046,-0.607 z m 6.266,-6.376 -0.603,1.047 -3.858,-2.232 0.606,-1.046 z M 18.977,5.055 h 4.463 v 1.212 h -4.463 z m 2.437,-7.562 -3.855,2.231 -0.606,-1.046 3.858,-2.232 z m -9.433,-3.332 2.231,-3.856 1.047,0.606 -2.232,3.857 z M 5.438,-11.733 H 6.65 v 4.462 H 5.438 Z m -5.328,5.894 -1.047,0.607 -2.245,-3.872 1.046,-0.605 z m -5.578,5.563 -3.856,-2.231 0.606,-1.047 3.857,2.232 z M -6.887,6.267 H -11.35 V 5.055 h 4.463 z m 2.038,6.389 -3.855,2.232 -0.607,-1.047 3.856,-2.231 z m 3.898,3.912 1.048,0.607 -2.233,3.854 -0.674,-0.385 -0.385,-0.221 0.124,-0.206 z M 6.65,23.055 H 5.438 V 18.592 H 6.65 Z m 22.105,-41.551 h -45.406 c -0.454,0 -0.813,-0.358 -0.813,-0.813 0,-0.454 0.359,-0.812 0.813,-0.812 h 45.406 c 0.456,0 0.813,0.358 0.813,0.812 0,0.441 -0.372,0.813 -0.813,0.813 m 4.642,67.235 h -54.703 c -0.331,0 -0.606,-0.275 -0.606,-0.606 0,-0.33 0.275,-0.606 0.606,-0.606 h 1.06 c 0.606,-6.142 6.239,-11.402 14.256,-14.074 1.03,-0.345 2.093,-0.648 3.194,-0.895 2.768,-0.634 5.742,-0.993 8.841,-0.993 3.127,0 6.129,0.359 8.925,1.006 1.101,0.262 2.163,0.55 3.195,0.896 7.987,2.671 13.578,7.918 14.185,14.047 h 1.062 c 0.328,0 0.604,0.275 0.604,0.606 -0.013,0.344 -0.288,0.619 -0.619,0.619 M -12.561,3.126 c 1.24,-9.157 9.117,-16.252 18.606,-16.252 9.49,0 17.367,7.08 18.606,16.252 0.111,0.826 0.18,1.681 0.18,2.534 0,2.204 -0.387,4.312 -1.089,6.279 -1.156,3.28 -3.208,6.13 -5.852,8.291 -0.91,0.745 -1.901,1.406 -2.935,1.971 -1.309,0.702 -2.698,1.267 -4.172,1.653 -1.514,0.399 -3.113,0.606 -4.752,0.606 -1.637,0 -3.22,-0.207 -4.75,-0.606 -1.447,-0.374 -2.81,-0.923 -4.105,-1.613 -1.073,-0.577 -2.079,-1.253 -3.016,-2.011 -2.644,-2.148 -4.682,-5.011 -5.852,-8.291 -0.703,-1.967 -1.089,-4.075 -1.089,-6.279 0.041,-0.853 0.11,-1.708 0.22,-2.534 m -2.133,-20.809 1.747,17.091 c -0.164,0.51 -0.316,1.046 -0.453,1.57 -0.166,0.702 -0.303,1.418 -0.387,2.134 -0.109,0.84 -0.165,1.695 -0.165,2.548 0,2.286 0.386,4.49 1.101,6.528 0.236,0.689 0.51,1.35 0.813,2.011 0.235,0.495 0.482,0.964 0.759,1.447 l 0.633,6.169 c 0,1.116 0.909,2.025 2.024,2.025 h 6.335 c 0.482,0.221 0.965,0.427 1.46,0.605 0.647,0.235 1.308,0.441 1.982,0.607 1.572,0.398 3.21,0.606 4.89,0.606 1.693,0 3.334,-0.208 4.89,-0.606 0.675,-0.166 1.336,-0.372 1.982,-0.607 0.497,-0.178 0.979,-0.384 1.461,-0.605 h 6.336 c 1.114,0 2.023,-0.909 2.023,-2.025 l 0.633,-6.169 c 0.276,-0.469 0.525,-0.952 0.758,-1.447 0.304,-0.647 0.58,-1.322 0.813,-2.011 0.715,-2.052 1.102,-4.242 1.102,-6.528 0,-0.867 -0.056,-1.722 -0.166,-2.548 C 25.781,2.382 25.656,1.68 25.492,0.978 25.367,0.44 25.216,-0.082 25.037,-0.592 l 1.749,-17.091 z m 32.859,49.882 c -1.032,-0.33 -2.107,-0.62 -3.195,-0.868 v -6.279 h 3.195 z M -2.796,25.052 H -5.99 v 7.12 c 1.03,-0.331 2.105,-0.62 3.194,-0.867 z"
         id="path64"
         inkscape:connector-curvature="0" />
    </g>
  </g>
</svg>
